<?xml version="1.0" standalone="no"?>
<!DOCTYPE svg PUBLIC "-//W3C//DTD SVG 20010904//EN"
 "http://www.w3.org/TR/2001/REC-SVG-20010904/DTD/svg10.dtd">
<svg version="1.0" xmlns="http://www.w3.org/2000/svg"
 width="700.000000pt" height="700.000000pt" viewBox="0 0 700.000000 700.000000"
 preserveAspectRatio="xMidYMid meet">
<metadata>
Created by potrace 1.14, written by Peter Selinger 2001-2017
</metadata>
<g transform="translate(0.000000,700.000000) scale(0.100000,-0.100000)"
fill="#000000" stroke="none">
<path d="M3278 6579 c-1213 -87 -2266 -884 -2682 -2031 -122 -338 -179 -670
-178 -1048 0 -234 16 -402 57 -609 22 -110 91 -369 101 -380 2 -2 39 29 81 70
300 286 718 482 1253 588 l135 27 317 549 c174 303 320 556 325 563 5 8 52
-64 137 -213 101 -175 133 -223 141 -213 7 7 187 317 400 688 214 371 391 679
395 683 6 7 94 -141 540 -916 l143 -247 17 27 c9 16 89 154 178 308 88 154
167 288 174 297 11 15 76 -92 504 -834 l491 -852 94 -38 c168 -68 343 -180
483 -309 l74 -69 16 52 c9 29 30 118 46 198 84 409 85 836 5 1239 -169 845
-694 1588 -1441 2039 -437 263 -921 407 -1459 432 -210 10 -197 10 -347 -1z
m-520 -1111 c155 -58 261 -225 249 -392 -10 -149 -93 -273 -225 -338 -62 -31
-74 -33 -167 -33 -92 0 -106 3 -167 32 -164 77 -258 251 -228 421 44 253 298
399 538 310z"/>
<path d="M3326 3944 c-241 -415 -437 -756 -435 -758 2 -1 56 -8 119 -15 264
-28 598 -110 844 -208 l141 -55 45 17 c180 71 400 131 563 155 48 7 87 15 87
17 0 5 -911 1585 -919 1595 -4 4 -204 -332 -445 -748z"/>
<path d="M2395 2920 c-154 -11 -354 -37 -475 -61 -493 -101 -926 -328 -1148
-603 l-63 -78 65 -125 c241 -461 633 -883 1086 -1168 102 -64 379 -210 411
-217 11 -2 33 20 64 62 158 214 316 353 927 814 503 378 713 557 831 706 120
151 128 225 29 294 -87 59 -439 206 -626 261 -327 95 -754 139 -1101 115z"/>
<path d="M4850 2843 c-161 -15 -257 -27 -329 -42 l-85 -17 87 -48 c261 -147
396 -352 397 -602 0 -205 -61 -379 -278 -784 -192 -358 -241 -472 -262 -608
-12 -70 3 -180 25 -188 24 -10 273 89 460 181 465 229 861 569 1162 995 131
186 283 465 283 520 0 83 -111 216 -263 315 -230 149 -536 250 -837 275 -109
9 -283 11 -360 3z"/>
</g>
</svg>
